<?xml version="1.0" encoding="utf-8"?>
<!-- Generator: Adobe Illustrator 22.0.1, SVG Export Plug-In . SVG Version: 6.00 Build 0)  -->
<svg version="1.1" id="Layer_1" xmlns="http://www.w3.org/2000/svg" xmlns:xlink="http://www.w3.org/1999/xlink" x="0px" y="0px"
	 viewBox="0 0 326 449.3" style="enable-background:new 0 0 326 449.3;" xml:space="preserve">
<style type="text/css">
	.st0{clip-path:url(#SVGID_2_);}
	.st1{fill:#F91A1F;}
	.st2{fill:#FFFFFF;}
</style>
<g>
	<defs>
		<rect id="SVGID_1_" x="-0.2" y="0" width="326" height="449.3"/>
	</defs>
	<clipPath id="SVGID_2_">
		<use xlink:href="#SVGID_1_"  style="overflow:visible;"/>
	</clipPath>
	<g class="st0">
		<path class="st1" d="M326.3,376.8v-0.8l-0.5,0.4l-61.3-52.9l62.3-14.2L253,238.3l72.9-25.2l-0.3-0.9l-73.1,25.3l-2.8-122.9
			l75.7,64.5l0.6-0.8l-76.4-65.1l0-0.9L87.7,263l-0.8-0.7l28.6,128.9l-0.2,0.7l0.6-0.1l39.1,27.9l-0.5,0.7l0.8-0.3l19.9,59.7
			l76.4-53.8l8.4,53.1l0.7,0l0.3,0.2l25.3-42.2l39.9,5.7v-65.2l1.1,0.1L326.3,376.8z M325.3,441.4l-49.6-22l49.6-41.3V441.4z
			 M208.1,435.7l54.5-65.3l-10.9,54.5L208.1,435.7z M210,431.9l19.8-34.7l29.7-24.8L210,431.9z M199.5,345.9l0.9,0.2l-16.3,27.1
			l-44.4-66.7l61-5.5v44.5L199.5,345.9z M229.1,396.1l-43.7-21.8l54.6-16.4L229.1,396.1z M230.4,395.4l10.7-37.5l21.5,10.7
			L230.4,395.4z M185.2,373.3l16.1-26.9l37.7,10.8L185.2,373.3z M201.6,301.2l60.4,22l-60.4,22V301.2z M200.9,299.9L89.8,263.8
			l161.1-25L200.9,299.9z M198.6,300.2l-59.7,5.4L90,264.9L198.6,300.2z M138.9,307.3l44.3,66.5l-66.5,16.6L138.9,307.3z
			 M184.3,374.8l43.8,21.9l-71.2,21.9L184.3,374.8z M228.4,397.7l-21.8,38.2l-49.2-16.4L228.4,397.7z M205.9,436.8L175.7,478
			l-19.2-57.7L205.9,436.8z M207.1,437l42.6-10.6l-71.8,50.6L207.1,437z M263.5,370.9l10.7,48.2l-21.4,5.4L263.5,370.9z M275,420.8
			l10.5,15.8L261.8,476L275,420.8z M276.2,420.7l46.2,20.5l-35.9-5.1L276.2,420.7z M275.1,418.6l-11-49.5l60.5,8.3L275.1,418.6z
			 M324.2,376.3l-60.6-8.3l-22.2-11.1l0.1-0.5l-0.7,0.2l-38.1-10.9l60.6-22L324.2,376.3z M263.5,322.6l-61.6-22.4l50.2-61.4
			l72.6,69.8L263.5,322.6z M251.6,237.7L89.2,262.9l159.6-148.4L251.6,237.7z M88.5,265l49.7,41.4l-22.1,82.8L88.5,265z
			 M117.2,391.4L183,375l-27.4,43.9L117.2,391.4z M252.7,425.6l21.4-5.4l-13.4,56.3L252.7,425.6z"/>
		<g>
			<circle class="st2" cx="229.4" cy="396.9" r="2.8"/>
			<circle class="st2" cx="206.8" cy="436.5" r="2.8"/>
			<circle class="st2" cx="175.6" cy="479.1" r="2.8"/>
			<circle class="st2" cx="260.6" cy="479.1" r="2.8"/>
			<circle class="st2" cx="325.8" cy="442.2" r="2.8"/>
			<circle class="st2" cx="325.8" cy="377" r="2.8"/>
			<circle class="st2" cx="325.8" cy="309" r="2.8"/>
			<circle class="st2" cx="325.8" cy="212.6" r="2.8"/>
			<circle class="st2" cx="325.8" cy="178.6" r="2.8"/>
			<circle class="st2" cx="155.7" cy="419.5" r="2.8"/>
			<circle class="st2" cx="286.1" cy="436.5" r="2.8"/>
			<circle class="st2" cx="274.8" cy="419.5" r="2.8"/>
			<circle class="st2" cx="263.4" cy="323.2" r="2.8"/>
			<circle class="st2" cx="252.1" cy="425.2" r="2.8"/>
			<circle class="st2" cx="263.4" cy="368.5" r="2.8"/>
			<circle class="st2" cx="240.8" cy="357.2" r="2.8"/>
			<circle class="st2" cx="201.1" cy="345.8" r="2.8"/>
			<circle class="st2" cx="201.1" cy="300.5" r="2.8"/>
			<circle class="st2" cx="249.3" cy="113.4" r="2.8"/>
			<circle class="st2" cx="87.7" cy="263.6" r="2.8"/>
			<circle class="st2" cx="252.1" cy="238.1" r="2.8"/>
			<circle class="st2" cx="184.1" cy="374.2" r="2.8"/>
			<circle class="st2" cx="116" cy="391.2" r="2.8"/>
			<circle class="st2" cx="138.7" cy="306.2" r="2.8"/>
		</g>
	</g>
</g>
</svg>
