<svg xmlns="http://www.w3.org/2000/svg" width="34.14222" height="44.08215" viewBox="0 0 34.14222 44.08215">
  <title>santa</title>
  <g style="isolation: isolate">
    <g>
      <path d="M28.1875,44.08215v-.00244C29.75275,44.05463,31,43.61841,31,43.08215s-1.24725-.97247-2.8125-.99756v-.00244H2.8125v.00244C1.24731,42.10968,0,42.5459,0,43.08215s1.24731.97247,2.8125.99756v.00244" style="opacity: 0.2;mix-blend-mode: darken"/>
      <path d="M27,20.08215s6,0,6,5h1s2-12-9-12S27,20.08215,27,20.08215Z" style="fill: #b91a1f"/>
      <path d="M11,12.08215s-8,0-8-5H2s-1.85778,12,9.14222,12S11,12.08215,11,12.08215Z" style="fill: #b91a1f"/>
      <path d="M29,29.08215c0-7,0-14.44-5-16.44a34.2143,34.2143,0,0,0-11-2s-9,4.44-9,19.44a3.197,3.197,0,0,0,.16974,1.01837L6,41.08215H7l.619-4.5708c1.02429.58746,3.46838,1.5708,8.381,1.5708A22.32228,22.32228,0,0,0,25.29626,36.452L26,41.08215h1l2-11Z" style="fill: #b91a1f"/>
      <path d="M13,13.64215v-7s1-4,6-4,6,4,6,6a4.38,4.38,0,0,1-1,3Z" style="fill: #fed1d2"/>
      <path d="M27.02,41.08215a7.67988,7.67988,0,0,1,0,2s-3.94292.266-4.016-.016a.94605.94605,0,0,1,.53854-.76233,10.2049,10.2049,0,0,1,1.53048-.22729c1.06628-.20309.82668-.855.947-.9944S27.02,41.08215,27.02,41.08215Z" style="fill: #071127"/>
      <path d="M7,41.08215a7.67988,7.67988,0,0,1,0,2s-3.92289.266-3.996-.016a.94605.94605,0,0,1,.53854-.76233,8.79159,8.79159,0,0,1,1.43324-.22729c1.06628-.20309.90389-.855,1.02419-.9944S7,41.08215,7,41.08215Z" style="fill: #071127"/>
      <path d="M4,30.08275s7.67593,3.44041,25,0" style="fill: none;stroke: #fff;stroke-linecap: round;stroke-linejoin: round"/>
      <path d="M33,25.08215a1.38506,1.38506,0,0,0,0,2c1,1,1-2,1-2Z" style="fill: #fed1d2"/>
      <g>
        <path d="M24.72687,7.49337l.538-.07936a4.84933,4.84933,0,0,1,4.1009-5.32851S15.84587-4.30391,13.317,5.2847C13.06194,6.25164,24.72687,7.49337,24.72687,7.49337Z" style="fill: #b91a1f"/>
        <path d="M12.927,6.67529c.79629.709,12.20186,3.11213,12.65606,1.581a1.084,1.084,0,0,0-.68275-1.5042S17.50181,4.35139,13.41921,4.928C12.3399,5.08038,12.21261,6.03928,12.927,6.67529Z" style="fill: #fff"/>
        <circle cx="28.79502" cy="1.98186" r="1" transform="translate(0.01905 4.22339) rotate(-8.39136)" style="fill: #fff"/>
      </g>
      <path d="M28.78621,21.82991l-.18358-1.55228a6.62011,6.62011,0,0,0-2.33295-.20632C27.30587,20.44457,28.66676,20.81988,28.78621,21.82991Z" style="fill: #a01a1f"/>
      <path d="M25.39828,22.52749a8.67769,8.67769,0,0,1-4.22611,1.13221,9.96466,9.96466,0,0,1-3.70824-.56611s.5064,1.4401,3.58611,1.4401A5.1382,5.1382,0,0,0,25.39828,22.52749Z" style="fill: #a01a1f"/>
      <path d="M13.63518,22.27955a10.03267,10.03267,0,0,1-4.07153.32765c-1.85928-.34986-2.30439-1.09734-2.30439-1.09734S7.205,22.87044,9.56365,23.31428A5.19352,5.19352,0,0,0,13.63518,22.27955Z" style="fill: #a01a1f"/>
      <path d="M13,6.64215s-.08241,4.29379,3,5c5.0301,1.15244,8.98843-3.28506,8.98843-3.28506S26.5,24.64215,15.5,24.64215,11,7.64215,13,6.64215Z" style="fill: #fff"/>
      <polygon points="17 9.642 16.322 12.795 14.933 11.727 17 9.642" style="fill: #fda3a5"/>
      <path d="M7.53713,37.11564l.08183-.60429A8.86657,8.86657,0,0,1,5.3426,33.9821,5.79714,5.79714,0,0,0,7.53713,37.11564Z" style="fill: #a01a1f"/>
      <path d="M3,7.08215S4.08306,5.4354,2.687,5.20979C1.31049,4.98735,2,7.08215,2,7.08215Z" style="fill: #fed1d2"/>
    </g>
  </g>
</svg>
